<?xml version="1.0" encoding="UTF-8" standalone="no"?>
<svg
   xmlns:dc="http://purl.org/dc/elements/1.1/"
   xmlns:cc="http://creativecommons.org/ns#"
   xmlns:rdf="http://www.w3.org/1999/02/22-rdf-syntax-ns#"
   xmlns:svg="http://www.w3.org/2000/svg"
   xmlns="http://www.w3.org/2000/svg"
   width="630"
   height="680"
   viewBox="0 0 166.6875 179.91667"
   version="1.1"
   id="svg8">
  <defs
     id="defs2" />
  <metadata
     id="metadata5">
    <rdf:RDF>
      <cc:Work
         rdf:about="">
        <dc:format>image/svg+xml</dc:format>
        <dc:type
           rdf:resource="http://purl.org/dc/dcmitype/StillImage" />
        <dc:title></dc:title>
      </cc:Work>
    </rdf:RDF>
  </metadata>
  <g
     id="layer1">
    <path
       style="fill:#000000;stroke-width:0.264583"
       d="M 48.455146,159.37674 C 29.331126,148.74175 13.651197,140.01454 13.610857,139.98293 13.431187,139.84213 0.96415669,30.954535 1.1077767,30.78041 1.2499767,30.608002 11.151517,27.041228 69.523446,6.1354578 L 83.293935,1.2035868 123.63009,15.6504 c 22.18489,7.945749 40.69948,14.598615 41.14352,14.784146 l 0.80734,0.337333 -6.29061,54.577781 c -3.45983,30.01777 -6.32317,54.60531 -6.36296,54.63896 -0.12142,0.1027 -68.012495,37.85344 -68.885775,38.30385 l -0.81551,0.42061 z m 7.72228,-35.59853 5.15729,-12.89844 21.947659,-0.0643 21.947655,-0.0643 5.15937,12.9596 5.15938,12.9596 9.60897,0.003 c 9.03235,0.003 9.60007,-0.0246 9.4606,-0.45987 C 134.21965,134.96939 83.503925,21.363912 83.310375,21.281367 83.135295,21.206697 31.808156,136.09315 31.808156,136.55969 c 0,0.0643 4.3227,0.11684 9.60599,0.11684 h 9.60599 z m 12.20919,-29.36875 c 0.141,-0.51131 14.431399,-34.914727 14.733769,-35.470797 0.15779,-0.29018 15.10632,35.086537 15.10009,35.735377 -10e-4,0.10914 -6.74282,0.19844 -14.98172,0.19844 -14.138739,0 -14.972649,-0.026 -14.852139,-0.46302 z"
       id="path24" />
  </g>
</svg>
