<?xml version="1.0" encoding="UTF-8" standalone="no"?>
<svg
   xmlns:dc="http://purl.org/dc/elements/1.1/"
   xmlns:cc="http://creativecommons.org/ns#"
   xmlns:rdf="http://www.w3.org/1999/02/22-rdf-syntax-ns#"
   xmlns:svg="http://www.w3.org/2000/svg"
   xmlns="http://www.w3.org/2000/svg"
   xmlns:sodipodi="http://sodipodi.sourceforge.net/DTD/sodipodi-0.dtd"
   xmlns:inkscape="http://www.inkscape.org/namespaces/inkscape"
   id="svg8"
   version="1.1"
   viewBox="0 0 190.5 190.50001"
   height="720"
   width="720"
   inkscape:version="1.0.2 (e86c870879, 2021-01-15)"
   sodipodi:docname="jsts_logo.svg">
  <defs
     id="defs2" />
  <sodipodi:namedview
     id="base"
     pagecolor="#ffffff"
     bordercolor="#666666"
     borderopacity="1.0"
     inkscape:pageopacity="0.0"
     inkscape:pageshadow="2"
     inkscape:zoom="0.35"
     inkscape:cx="400"
     inkscape:cy="560"
     inkscape:document-units="mm"
     inkscape:current-layer="layer1"
     inkscape:document-rotation="0"
     showgrid="false"
     inkscape:window-width="1366"
     inkscape:window-height="728"
     inkscape:window-x="0"
     inkscape:window-y="0"
     inkscape:window-maximized="0"
     inkscape:snap-object-midpoints="true"
     units="px" />
  <metadata
     id="metadata5">
    <rdf:RDF>
      <cc:Work
         rdf:about="">
        <dc:format>image/svg+xml</dc:format>
        <dc:type
           rdf:resource="http://purl.org/dc/dcmitype/StillImage" />
        <dc:title></dc:title>
      </cc:Work>
    </rdf:RDF>
  </metadata>
  <g
     inkscape:label="Warstwa 1"
     inkscape:groupmode="layer"
     id="layer1">
    <g
       id="g82"
       transform="translate(231.32142,-39.309529)">
      <path
         style="fill:#007acc;fill-opacity:1;stroke-width:0.211666"
         d="m -167.82142,166.30953 v -63.5 h 63.5 63.5 v 63.5 63.5 h -63.5 -63.5 z m 103.293336,52.5334 c 4.115616,-1.10263 6.693152,-2.48734 9.101344,-4.88943 2.715168,-2.7083 3.976456,-5.75105 4.175536,-10.07314 0.246456,-5.35073 -1.34056,-9.77143 -4.648104,-12.94749 -2.408024,-2.31231 -5.966376,-4.36199 -13.122776,-7.55898 -3.951712,-1.76535 -5.342529,-2.55178 -6.426697,-3.63389 -2.02768,-2.02384 -2.072224,-5.11874 -0.101912,-7.08047 1.152392,-1.14737 2.118729,-1.48211 4.273833,-1.48049 2.807664,0.002 4.290208,0.75568 6.20284,3.15281 0.659432,0.82647 1.311424,1.50268 1.44888,1.50268 0.407488,0 8.83372,-5.71952 8.83372,-5.99611 0,-1.02597 -4.297824,-5.64389 -6.413408,-6.89106 -1.4388,-0.8482 -4.260752,-1.83196 -6.120984,-2.13384 -2.101264,-0.34099 -6.938001,-0.2719 -8.696321,0.12422 -6.2536,1.40883 -10.644784,5.42864 -12.22592,11.19193 -0.40628,1.48091 -0.446872,2.05121 -0.360744,5.06802 0.08414,2.94701 0.166328,3.58399 0.617712,4.78706 1.747832,4.65844 4.911816,7.86816 10.5112,10.66317 1.083888,0.54103 3.274632,1.5599 4.868337,2.26415 7.323736,3.23631 9.034112,4.57752 9.460104,7.41822 0.176488,1.17694 -0.302024,2.97518 -1.008528,3.79002 -0.748144,0.86287 -1.850632,1.5825 -3.225616,2.10548 -1.032016,0.39252 -1.706304,0.48531 -3.598328,0.49515 -2.501512,0.013 -3.967329,-0.303 -5.864305,-1.26427 -1.277992,-0.6476 -3.738376,-2.95546 -4.868736,-4.5669 -0.475272,-0.67754 -0.890096,-1.2319 -0.921824,-1.2319 -0.0648,0 -8.399472,4.83653 -9.141392,5.30466 -0.261936,0.16527 -0.476248,0.41422 -0.476248,0.55321 0,0.50642 2.658248,4.20973 3.9052,5.44048 3.052768,3.01309 8.25916,5.52969 12.953072,6.26109 0.681576,0.10621 3.048977,0.16112 5.260897,0.12202 3.193416,-0.0565 4.348608,-0.15868 5.609168,-0.4964 z m -47.201676,-23.53506 v -23.495 h 8.255 8.255003 v -5.29168 -5.29166 h -22.330833 -22.33083 l -6.3e-4,1.32292 c -4.3e-4,0.7276 -0.063,3.10885 -0.13931,5.29166 l -0.13869,3.96876 h 8.28846 8.28847 v 23.495 23.495 h 5.92667 5.92666 v -23.495 z"
         id="path78" />
      <path
         style="fill:#ffff00;stroke-width:0.264583"
         d="M -231.32142,102.80953 V 39.309527 h 63.5 63.5 v 63.500003 63.5 h -63.5 -63.5 z m 56.75313,53.03619 c 5.81342,-1.17416 10.13648,-5.34362 11.83772,-11.4171 0.57007,-2.03518 0.57935,-2.37572 0.66778,-24.48732 l 0.0897,-22.423438 h -6.09915 -6.09915 v 21.153648 c 0,14.08776 -0.095,21.59665 -0.28443,22.47991 -0.54475,2.54006 -1.86758,3.83331 -4.40334,4.30489 -3.36586,0.62595 -5.73994,-0.51573 -7.88947,-3.79398 -0.70086,-1.06889 -1.31048,-1.99067 -1.35472,-2.0484 -0.0782,-0.10203 -8.48635,4.87373 -9.42149,5.5754 -0.43671,0.32768 -0.40256,0.45928 0.52649,2.0291 4.35606,7.36044 12.73878,10.58469 22.43009,8.62729 z m 46.84676,-0.10231 c 2.82243,-0.68064 4.52229,-1.37106 6.58854,-2.67602 5.45393,-3.44446 8.01521,-10.09522 6.64525,-17.25537 -1.26456,-6.60922 -5.71765,-10.75186 -16.4243,-15.27924 -6.41396,-2.71218 -8.55247,-4.20834 -9.14144,-6.39559 -0.6745,-2.50492 0.3385,-4.97663 2.46064,-6.00394 1.78338,-0.86332 4.68025,-0.78989 6.56399,0.16638 1.27185,0.64566 2.75025,2.13277 3.82098,3.84352 0.22606,0.36119 0.9339,-0.0102 4.86236,-2.55097 2.52878,-1.63553 4.58337,-3.08657 4.56576,-3.22453 -0.0857,-0.67118 -1.91068,-3.08347 -3.53855,-4.67725 -2.12933,-2.084738 -5.13338,-3.701598 -8.00624,-4.309178 -2.80319,-0.59284 -7.9841,-0.53087 -10.58333,0.1266 -7.29735,1.84582 -11.82373,7.140798 -12.23061,14.307388 -0.40692,7.16726 2.51912,12.38997 9.1879,16.39952 0.94588,0.5687 3.92244,2.0005 6.61458,3.18176 5.79085,2.54093 7.2108,3.3192 8.51706,4.6682 1.17978,1.21838 1.53711,2.09295 1.53711,3.76212 0,3.7302 -3.65567,6.11132 -8.86354,5.77326 -4.36409,-0.28328 -7.76817,-2.40482 -10.46546,-6.52244 l -0.4113,-0.62786 -4.68095,2.70876 c -2.57452,1.48982 -4.75174,2.8233 -4.83826,2.9633 -0.25239,0.40837 1.47708,3.08347 3.18553,4.9273 3.60809,3.894 8.67672,6.39658 14.5646,7.19112 2.61921,0.35345 7.55326,0.11 10.06968,-0.49684 z"
         id="path62" />
    </g>
  </g>
</svg>
